# xmcd CD database file
#
# Track frame offsets:
#	150
#	17620
#	33598
#	56003
#	72338
#	91733
#	116395
#	131980
#	150303
#	167083
#
# Disc length: 2416 seconds
#
# Revision: 0
# Processed by: cddbd v1.5.1PL0 Copyright (c) Steve Scherf et al.
# Submitted via: CDex 1.51
#
DISCID=7b096e0a
DTITLE=Pool - Piece Out
DYEAR=1999
DGENRE=JPop
TTITLE0=Guilty
TTITLE1=もうちょっと強く
TTITLE2=ラベンダー
TTITLE3=おいしいパスタ
TTITLE4=空へ
TTITLE5=眠りの中で
TTITLE6=easy
TTITLE7=デスクワーク
TTITLE8=ブラックティー
TTITLE9=風に吹かれて
EXTD=YEAR: 1999
EXTT0=
EXTT1=
EXTT2=
EXTT3=
EXTT4=
EXTT5=
EXTT6=
EXTT7=
EXTT8=
EXTT9=
PLAYORDER=
